<svg xmlns="http://www.w3.org/2000/svg" version="1.1" xmlns:xlink="http://www.w3.org/1999/xlink" xmlns:svgjs="http://svgjs.dev/svgjs" width="2000" height="1500" viewBox="0 0 2000 1500"><rect width="2000" height="1500" fill="#ffffff"></rect><g transform="matrix(0.75,0,0,0.75,249.090909090909,499.94359522364846)"><svg viewBox="0 0 396 132" data-background-color="#ffffff" preserveAspectRatio="xMidYMid meet" height="666" width="2000" xmlns="http://www.w3.org/2000/svg" xmlns:xlink="http://www.w3.org/1999/xlink"><g id="tight-bounds" transform="matrix(1,0,0,1,0.2400000000000091,0.08097183278960074)"><svg viewBox="0 0 395.52 131.83805633442077" height="131.83805633442077" width="395.52"><g><svg viewBox="0 0 473.97737682191837 157.99012971958197" height="131.83805633442077" width="395.52"><g transform="matrix(1,0,0,1,76.47977682191848,48.82124329378985)"><svg viewBox="0 0 397.4975999999999 60.34764313200228" height="60.34764313200228" width="397.4975999999999"><g id="textblocktransform"><svg viewBox="0 0 397.4975999999999 60.34764313200228" height="60.34764313200228" width="397.4975999999999" id="textblock"><g><rect width="397.4975999999999" height="3.361563230859482" x="0" y="41.235680374995646" fill="#242b75" opacity="1" stroke-width="0" stroke="transparent" fill-opacity="1" class="rect-yte-0" data-fill-palette-color="primary" rx="1%" id="yte-0" data-palette-color="#242b75"></rect></g><g transform="matrix(1,0,0,1,0.9887999999999693,0)"><svg viewBox="0 0 395.52 37.27572368942819" height="37.27572368942819" width="395.52"><g transform="matrix(1,0,0,1,0,0)"><svg width="395.52" viewBox="3.25 -25.7 378.24 35.65" height="37.27572368942819" data-palette-color="#242b75"><path d="M23.4-16.9Q23.6-15.5 23.6-13.4L23.6-13.4 23.6-11.8Q23.6-11.3 23.1-11.3L23.1-11.3 6.95-11.3Q6.75-11.3 6.75-11.1L6.75-11.1Q6.85-8.35 7.05-7.55L7.05-7.55Q7.6-5.3 9.4-4 11.2-2.7 14-2.7L14-2.7Q16.1-2.7 17.7-3.65 19.3-4.6 20.2-6.35L20.2-6.35Q20.5-6.8 20.9-6.55L20.9-6.55 22.85-5.4Q23.25-5.15 23.05-4.7L23.05-4.7Q21.8-2.3 19.3-0.93 16.8 0.45 13.55 0.45L13.55 0.45Q10 0.4 7.6-1.25 5.2-2.9 4.15-5.85L4.15-5.85Q3.25-8.25 3.25-12.75L3.25-12.75Q3.25-14.85 3.33-16.18 3.4-17.5 3.7-18.55L3.7-18.55Q4.55-21.8 7.13-23.75 9.7-25.7 13.35-25.7L13.35-25.7Q17.9-25.7 20.35-23.4 22.8-21.1 23.4-16.9L23.4-16.9ZM13.35-22.6Q10.9-22.6 9.28-21.33 7.65-20.05 7.15-17.9L7.15-17.9Q6.85-16.85 6.75-14.5L6.75-14.5Q6.75-14.3 6.95-14.3L6.95-14.3 19.9-14.3Q20.1-14.3 20.1-14.5L20.1-14.5Q20-16.75 19.8-17.7L19.8-17.7Q19.25-19.95 17.57-21.28 15.9-22.6 13.35-22.6L13.35-22.6ZM27.8 0Q27.5 0 27.37-0.2 27.25-0.4 27.45-0.6L27.45-0.6 35.8-12.5Q35.9-12.65 35.8-12.8L35.8-12.8 27.45-24.7Q27.35-24.8 27.35-24.95L27.35-24.95Q27.35-25.3 27.8-25.3L27.8-25.3 30.5-25.3Q30.9-25.3 31.1-25L31.1-25 37.65-15.55Q37.7-15.5 37.8-15.5 37.9-15.5 37.95-15.55L37.95-15.55 44.45-25Q44.65-25.3 45.05-25.3L45.05-25.3 48-25.3Q48.3-25.3 48.4-25.13 48.5-24.95 48.3-24.7L48.3-24.7 39.95-12.8Q39.9-12.65 39.95-12.5L39.95-12.5 48.3-0.6Q48.4-0.5 48.4-0.3L48.4-0.3Q48.4-0.2 48.3-0.1 48.2 0 48 0L48 0 45.25 0Q44.85 0 44.65-0.3L44.65-0.3 38.15-9.75Q38.1-9.85 38-9.85 37.9-9.85 37.85-9.75L37.85-9.75 31.25-0.3Q31.05 0 30.65 0L30.65 0 27.8 0ZM73.45-19Q74.2-16.6 74.2-12.65L74.2-12.65Q74.2-8.65 73.55-6.45L73.55-6.45Q72.65-3.25 70.27-1.43 67.9 0.4 64.3 0.4L64.3 0.4Q62.34 0.4 60.7-0.38 59.05-1.15 57.95-2.6L57.95-2.6Q57.84-2.7 57.77-2.68 57.7-2.65 57.7-2.55L57.7-2.55 57.7 9.2Q57.7 9.7 57.2 9.7L57.2 9.7 54.65 9.7Q54.15 9.7 54.15 9.2L54.15 9.2 54.15-24.8Q54.15-25.3 54.65-25.3L54.65-25.3 57.2-25.3Q57.7-25.3 57.7-24.8L57.7-24.8 57.7-22.7Q57.7-22.6 57.77-22.58 57.84-22.55 57.95-22.65L57.95-22.65Q59.05-24.1 60.67-24.9 62.3-25.7 64.3-25.7L64.3-25.7Q67.8-25.7 70.17-23.9 72.55-22.1 73.45-19L73.45-19ZM69.5-6.35Q70.05-7.45 70.32-8.83 70.59-10.2 70.59-12.65L70.59-12.65Q70.59-15 70.4-16.32 70.2-17.65 69.7-18.7L69.7-18.7Q69.09-20.5 67.57-21.55 66.05-22.6 63.95-22.6L63.95-22.6Q61.95-22.6 60.59-21.55 59.25-20.5 58.59-18.75L58.59-18.75Q58.15-17.75 57.95-16.4 57.75-15.05 57.75-12.65L57.75-12.65Q57.75-10.25 57.95-8.88 58.15-7.5 58.65-6.45L58.65-6.45Q59.25-4.75 60.62-3.73 62-2.7 63.9-2.7L63.9-2.7Q65.9-2.7 67.37-3.7 68.84-4.7 69.5-6.35L69.5-6.35ZM100.44-16.9Q100.64-15.5 100.64-13.4L100.64-13.4 100.64-11.8Q100.64-11.3 100.14-11.3L100.14-11.3 83.99-11.3Q83.79-11.3 83.79-11.1L83.79-11.1Q83.89-8.35 84.09-7.55L84.09-7.55Q84.64-5.3 86.44-4 88.24-2.7 91.04-2.7L91.04-2.7Q93.14-2.7 94.74-3.65 96.34-4.6 97.24-6.35L97.24-6.35Q97.54-6.8 97.94-6.55L97.94-6.55 99.89-5.4Q100.29-5.15 100.09-4.7L100.09-4.7Q98.84-2.3 96.34-0.93 93.84 0.45 90.59 0.45L90.59 0.45Q87.04 0.4 84.64-1.25 82.24-2.9 81.19-5.85L81.19-5.85Q80.29-8.25 80.29-12.75L80.29-12.75Q80.29-14.85 80.37-16.18 80.44-17.5 80.74-18.55L80.74-18.55Q81.59-21.8 84.17-23.75 86.74-25.7 90.39-25.7L90.39-25.7Q94.94-25.7 97.39-23.4 99.84-21.1 100.44-16.9L100.44-16.9ZM90.39-22.6Q87.94-22.6 86.32-21.33 84.69-20.05 84.19-17.9L84.19-17.9Q83.89-16.85 83.79-14.5L83.79-14.5Q83.79-14.3 83.99-14.3L83.99-14.3 96.94-14.3Q97.14-14.3 97.14-14.5L97.14-14.5Q97.04-16.75 96.84-17.7L96.84-17.7Q96.29-19.95 94.62-21.28 92.94-22.6 90.39-22.6L90.39-22.6ZM118.19-25.65Q122.19-25.65 124.57-23.3 126.94-20.95 126.94-17L126.94-17 126.94-0.5Q126.94 0 126.44 0L126.44 0 123.89 0Q123.39 0 123.39-0.5L123.39-0.5 123.39-16.3Q123.39-19.05 121.72-20.8 120.04-22.55 117.39-22.55L117.39-22.55Q114.64-22.55 112.94-20.85 111.24-19.15 111.24-16.4L111.24-16.4 111.24-0.5Q111.24 0 110.74 0L110.74 0 108.19 0Q107.69 0 107.69-0.5L107.69-0.5 107.69-24.8Q107.69-25.3 108.19-25.3L108.19-25.3 110.74-25.3Q111.24-25.3 111.24-24.8L111.24-24.8 111.24-22.65Q111.24-22.55 111.32-22.5 111.39-22.45 111.44-22.55L111.44-22.55Q113.64-25.65 118.19-25.65L118.19-25.65ZM142.94 0.25Q140.14 0.25 137.96-0.65 135.79-1.55 134.61-3.05 133.44-4.55 133.44-6.4L133.44-6.4 133.44-7Q133.44-7.5 133.94-7.5L133.94-7.5 136.34-7.5Q136.84-7.5 136.84-7L136.84-7 136.84-6.6Q136.84-4.95 138.56-3.73 140.29-2.5 142.89-2.5L142.89-2.5Q145.49-2.5 147.09-3.68 148.69-4.85 148.69-6.65L148.69-6.65Q148.69-7.9 147.86-8.7 147.04-9.5 145.91-9.95 144.79-10.4 142.44-11.1L142.44-11.1Q139.64-11.9 137.84-12.7 136.04-13.5 134.81-14.93 133.59-16.35 133.59-18.55L133.59-18.55Q133.59-21.75 136.09-23.65 138.59-25.55 142.69-25.55L142.69-25.55Q145.44-25.55 147.56-24.65 149.69-23.75 150.84-22.18 151.99-20.6 151.99-18.65L151.99-18.65 151.99-18.5Q151.99-18 151.49-18L151.49-18 149.14-18Q148.64-18 148.64-18.5L148.64-18.5 148.64-18.65Q148.64-20.35 147.01-21.5 145.39-22.65 142.64-22.65L142.64-22.65Q140.09-22.65 138.54-21.63 136.99-20.6 136.99-18.8L136.99-18.8Q136.99-17.1 138.49-16.2 139.99-15.3 143.14-14.4L143.14-14.4Q146.04-13.55 147.84-12.8 149.64-12.05 150.94-10.63 152.24-9.2 152.24-6.9L152.24-6.9Q152.24-3.65 149.69-1.7 147.14 0.25 142.94 0.25L142.94 0.25ZM178.09-16.9Q178.29-15.5 178.29-13.4L178.29-13.4 178.29-11.8Q178.29-11.3 177.79-11.3L177.79-11.3 161.64-11.3Q161.44-11.3 161.44-11.1L161.44-11.1Q161.54-8.35 161.74-7.55L161.74-7.55Q162.29-5.3 164.09-4 165.89-2.7 168.69-2.7L168.69-2.7Q170.79-2.7 172.39-3.65 173.99-4.6 174.89-6.35L174.89-6.35Q175.19-6.8 175.59-6.55L175.59-6.55 177.54-5.4Q177.94-5.15 177.74-4.7L177.74-4.7Q176.49-2.3 173.99-0.93 171.49 0.45 168.24 0.45L168.24 0.45Q164.69 0.4 162.29-1.25 159.89-2.9 158.84-5.85L158.84-5.85Q157.94-8.25 157.94-12.75L157.94-12.75Q157.94-14.85 158.01-16.18 158.09-17.5 158.39-18.55L158.39-18.55Q159.24-21.8 161.81-23.75 164.39-25.7 168.04-25.7L168.04-25.7Q172.59-25.7 175.04-23.4 177.49-21.1 178.09-16.9L178.09-16.9ZM168.04-22.6Q165.59-22.6 163.96-21.33 162.34-20.05 161.84-17.9L161.84-17.9Q161.54-16.85 161.44-14.5L161.44-14.5Q161.44-14.3 161.64-14.3L161.64-14.3 174.59-14.3Q174.79-14.3 174.79-14.5L174.79-14.5Q174.69-16.75 174.49-17.7L174.49-17.7Q173.94-19.95 172.26-21.28 170.59-22.6 168.04-22.6L168.04-22.6ZM220.93-25.65Q224.68-25.65 226.86-23.4 229.03-21.15 229.03-17.25L229.03-17.25 229.03-0.5Q229.03 0 228.53 0L228.53 0 226.03 0Q225.53 0 225.53-0.5L225.53-0.5 225.53-16.55Q225.53-19.3 223.96-20.93 222.38-22.55 219.83-22.55L219.83-22.55Q217.18-22.55 215.56-20.95 213.93-19.35 213.93-16.65L213.93-16.65 213.93-0.5Q213.93 0 213.43 0L213.43 0 210.88 0Q210.38 0 210.38-0.5L210.38-0.5 210.38-16.55Q210.38-19.3 208.83-20.93 207.28-22.55 204.68-22.55L204.68-22.55Q202.03-22.55 200.46-20.95 198.88-19.35 198.88-16.65L198.88-16.65 198.88-0.5Q198.88 0 198.38 0L198.38 0 195.83 0Q195.33 0 195.33-0.5L195.33-0.5 195.33-24.8Q195.33-25.3 195.83-25.3L195.83-25.3 198.38-25.3Q198.88-25.3 198.88-24.8L198.88-24.8 198.88-22.8Q198.88-22.7 198.96-22.68 199.03-22.65 199.13-22.75L199.13-22.75Q200.23-24.2 201.96-24.93 203.68-25.65 205.78-25.65L205.78-25.65Q208.38-25.65 210.23-24.6 212.08-23.55 213.03-21.55L213.03-21.55Q213.13-21.3 213.28-21.55L213.28-21.55Q214.38-23.6 216.38-24.63 218.38-25.65 220.93-25.65L220.93-25.65ZM245.43-25.7Q249.93-25.7 252.38-23.4 254.83-21.1 254.83-17.3L254.83-17.3 254.83-0.5Q254.83 0 254.33 0L254.33 0 251.78 0Q251.28 0 251.28-0.5L251.28-0.5 251.28-2.55Q251.28-2.65 251.2-2.7 251.13-2.75 251.03-2.65L251.03-2.65Q249.78-1.15 247.78-0.38 245.78 0.4 243.33 0.4L243.33 0.4Q239.78 0.4 237.38-1.4 234.98-3.2 234.98-6.9L234.98-6.9Q234.98-10.65 237.7-12.83 240.43-15 245.28-15L245.28-15 251.08-15Q251.28-15 251.28-15.2L251.28-15.2 251.28-17.1Q251.28-19.65 249.85-21.13 248.43-22.6 245.43-22.6L245.43-22.6Q243.03-22.6 241.53-21.68 240.03-20.75 239.68-19.1L239.68-19.1Q239.53-18.6 239.08-18.65L239.08-18.65 236.38-19Q235.83-19.1 235.93-19.4L235.93-19.4Q236.33-22.2 238.93-23.95 241.53-25.7 245.43-25.7L245.43-25.7ZM244.03-2.65Q246.98-2.65 249.13-4.13 251.28-5.6 251.28-8.1L251.28-8.1 251.28-12Q251.28-12.2 251.08-12.2L251.08-12.2 245.83-12.2Q242.53-12.2 240.53-10.85 238.53-9.5 238.53-7.1L238.53-7.1Q238.53-4.9 240.05-3.78 241.58-2.65 244.03-2.65L244.03-2.65ZM272.73-25.65Q276.73-25.65 279.1-23.3 281.48-20.95 281.48-17L281.48-17 281.48-0.5Q281.48 0 280.98 0L280.98 0 278.43 0Q277.93 0 277.93-0.5L277.93-0.5 277.93-16.3Q277.93-19.05 276.25-20.8 274.58-22.55 271.93-22.55L271.93-22.55Q269.18-22.55 267.48-20.85 265.78-19.15 265.78-16.4L265.78-16.4 265.78-0.5Q265.78 0 265.28 0L265.28 0 262.73 0Q262.23 0 262.23-0.5L262.23-0.5 262.23-24.8Q262.23-25.3 262.73-25.3L262.73-25.3 265.28-25.3Q265.78-25.3 265.78-24.8L265.78-24.8 265.78-22.65Q265.78-22.55 265.85-22.5 265.93-22.45 265.98-22.55L265.98-22.55Q268.18-25.65 272.73-25.65L272.73-25.65ZM297.92-25.7Q302.42-25.7 304.87-23.4 307.32-21.1 307.32-17.3L307.32-17.3 307.32-0.5Q307.32 0 306.82 0L306.82 0 304.27 0Q303.77 0 303.77-0.5L303.77-0.5 303.77-2.55Q303.77-2.65 303.7-2.7 303.62-2.75 303.52-2.65L303.52-2.65Q302.27-1.15 300.27-0.38 298.27 0.4 295.82 0.4L295.82 0.4Q292.27 0.4 289.87-1.4 287.47-3.2 287.47-6.9L287.47-6.9Q287.47-10.65 290.2-12.83 292.92-15 297.77-15L297.77-15 303.57-15Q303.77-15 303.77-15.2L303.77-15.2 303.77-17.1Q303.77-19.65 302.35-21.13 300.92-22.6 297.92-22.6L297.92-22.6Q295.52-22.6 294.02-21.68 292.52-20.75 292.17-19.1L292.17-19.1Q292.02-18.6 291.57-18.65L291.57-18.65 288.87-19Q288.32-19.1 288.42-19.4L288.42-19.4Q288.82-22.2 291.42-23.95 294.02-25.7 297.92-25.7L297.92-25.7ZM296.52-2.65Q299.47-2.65 301.62-4.13 303.77-5.6 303.77-8.1L303.77-8.1 303.77-12Q303.77-12.2 303.57-12.2L303.57-12.2 298.32-12.2Q295.02-12.2 293.02-10.85 291.02-9.5 291.02-7.1L291.02-7.1Q291.02-4.9 292.55-3.78 294.07-2.65 296.52-2.65L296.52-2.65ZM330.32-24.8Q330.32-25.3 330.82-25.3L330.82-25.3 333.37-25.3Q333.87-25.3 333.87-24.8L333.87-24.8 333.87-0.85Q333.87 4.75 330.65 7.35 327.42 9.95 321.77 9.95L321.77 9.95Q320.62 9.95 320.02 9.9L320.02 9.9Q319.52 9.85 319.52 9.35L319.52 9.35 319.62 7.05Q319.62 6.8 319.77 6.68 319.92 6.55 320.12 6.6L320.12 6.6 321.47 6.65Q326.12 6.65 328.22 4.83 330.32 3 330.32-0.95L330.32-0.95 330.32-2.8Q330.32-2.9 330.25-2.93 330.17-2.95 330.07-2.85L330.07-2.85Q327.77 0.15 323.52 0.15L323.52 0.15Q320.27 0.15 317.75-1.6 315.22-3.35 314.37-6.55L314.37-6.55Q313.77-8.6 313.77-12.65L313.77-12.65Q313.77-14.85 313.9-16.35 314.02-17.85 314.42-19.05L314.42-19.05Q315.32-22.05 317.67-23.88 320.02-25.7 323.32-25.7L323.32-25.7Q327.77-25.7 330.07-22.75L330.07-22.75Q330.17-22.65 330.25-22.7 330.32-22.75 330.32-22.85L330.32-22.85 330.32-24.8ZM330.07-7.65Q330.22-8.4 330.27-9.5 330.32-10.6 330.32-12.7L330.32-12.7Q330.32-15.25 330.27-16.13 330.22-17 330.02-17.75L330.02-17.75Q329.62-19.85 328.05-21.23 326.47-22.6 324.07-22.6L324.07-22.6Q321.72-22.6 320.1-21.25 318.47-19.9 317.82-17.75L317.82-17.75Q317.32-16.15 317.32-12.75L317.32-12.75Q317.32-9.1 317.82-7.7L317.82-7.7Q318.32-5.6 320-4.23 321.67-2.85 324.07-2.85L324.07-2.85Q326.52-2.85 328.1-4.2 329.67-5.55 330.07-7.65L330.07-7.65ZM360.87-16.9Q361.07-15.5 361.07-13.4L361.07-13.4 361.07-11.8Q361.07-11.3 360.57-11.3L360.57-11.3 344.42-11.3Q344.22-11.3 344.22-11.1L344.22-11.1Q344.32-8.35 344.52-7.55L344.52-7.55Q345.07-5.3 346.87-4 348.67-2.7 351.47-2.7L351.47-2.7Q353.57-2.7 355.17-3.65 356.77-4.6 357.67-6.35L357.67-6.35Q357.97-6.8 358.37-6.55L358.37-6.55 360.32-5.4Q360.72-5.15 360.52-4.7L360.52-4.7Q359.27-2.3 356.77-0.93 354.27 0.45 351.02 0.45L351.02 0.45Q347.47 0.4 345.07-1.25 342.67-2.9 341.62-5.85L341.62-5.85Q340.72-8.25 340.72-12.75L340.72-12.75Q340.72-14.85 340.79-16.18 340.87-17.5 341.17-18.55L341.17-18.55Q342.02-21.8 344.59-23.75 347.17-25.7 350.82-25.7L350.82-25.7Q355.37-25.7 357.82-23.4 360.27-21.1 360.87-16.9L360.87-16.9ZM350.82-22.6Q348.37-22.6 346.74-21.33 345.12-20.05 344.62-17.9L344.62-17.9Q344.32-16.85 344.22-14.5L344.22-14.5Q344.22-14.3 344.42-14.3L344.42-14.3 357.37-14.3Q357.57-14.3 357.57-14.5L357.57-14.5Q357.47-16.75 357.27-17.7L357.27-17.7Q356.72-19.95 355.04-21.28 353.37-22.6 350.82-22.6L350.82-22.6ZM378.32-25.55Q379.97-25.55 381.17-24.9L381.17-24.9Q381.57-24.7 381.47-24.25L381.47-24.25 380.92-21.8Q380.77-21.3 380.27-21.5L380.27-21.5Q379.42-21.85 378.32-21.85L378.32-21.85 377.67-21.8Q375.07-21.7 373.37-19.88 371.67-18.05 371.67-15.25L371.67-15.25 371.67-0.5Q371.67 0 371.17 0L371.17 0 368.62 0Q368.12 0 368.12-0.5L368.12-0.5 368.12-24.8Q368.12-25.3 368.62-25.3L368.62-25.3 371.17-25.3Q371.67-25.3 371.67-24.8L371.67-24.8 371.67-21.75Q371.67-21.6 371.74-21.58 371.82-21.55 371.87-21.65L371.87-21.65Q372.92-23.5 374.54-24.53 376.17-25.55 378.32-25.55L378.32-25.55Z" opacity="1" transform="matrix(1,0,0,1,0,0)" fill="#242b75" class="wordmark-text-0" data-fill-palette-color="primary" id="text-0"></path></svg></g></svg></g><g transform="matrix(1,0,0,1,0,48.55720029142258)"><svg viewBox="0 0 232.209792 11.79044284057971" height="11.79044284057971" width="232.209792"><g transform="matrix(1,0,0,1,0,0)"><svg width="232.209792" viewBox="2.54 -38.6 970.21 49.27" height="11.79044284057971" data-palette-color="#161c60"><path d="M12.5 0.51L12.5 0.51Q9.84 0.51 7.52-0.02 5.2-0.56 2.59-1.68L2.59-1.68 2.54-7.96 6.18-7.96 7.08-4.17Q9.67-3.1 12.5-3.1L12.5-3.1Q15.43-3.1 16.7-4.22 17.97-5.35 17.97-7.01L17.97-7.01Q17.97-8.57 16.69-9.66 15.41-10.74 12.04-11.5L12.04-11.5Q7.25-12.6 4.99-14.44 2.73-16.28 2.73-19.36L2.73-19.36Q2.73-21.51 3.98-23.22L3.98-23.22Q5.22-24.9 7.45-25.9 9.67-26.9 12.62-26.9L12.62-26.9Q15.63-26.9 17.76-26.22 19.9-25.54 21.48-24.39L21.48-24.39 21.73-18.36 18.12-18.36 17.33-21.88Q15.55-23.19 12.62-23.19L12.62-23.19Q10.38-23.19 8.97-22.14 7.57-21.09 7.57-19.51L7.57-19.51Q7.57-18.6 7.98-17.9L7.98-17.9Q8.42-17.14 9.74-16.58 11.06-16.02 12.89-15.58L12.89-15.58Q18.41-14.28 20.59-12.28 22.78-10.28 22.78-7.35L22.78-7.35Q22.78-4 20.3-1.75 17.82 0.51 12.5 0.51ZM36.08 0.42L36.08 0.42Q33.15 0.42 31.43-1.31 29.71-3.03 29.71-6.81L29.71-6.81 29.71-22.85 25.53-22.85 25.53-26.42 29.71-26.42 29.71-32.79 34.52-32.79 34.52-26.42 40.26-26.42 40.26-22.85 34.52-22.85 34.52-6.81Q34.52-4.91 35.28-4 36.03-3.1 37.3-3.1L37.3-3.1Q38.16-3.1 39.21-3.26 40.26-3.42 40.84-3.54L40.84-3.54 41.5-0.39Q40.45-0.07 38.93 0.17 37.4 0.42 36.08 0.42ZM53.12 0.51L53.12 0.51Q48.99 0.51 46.85-1.5 44.7-3.52 44.7-7.18L44.7-7.18Q44.7-9.72 46.09-11.57L46.09-11.57Q47.46-13.45 50.07-14.48 52.68-15.5 56.32-15.5L56.32-15.5 61.03-15.5 61.03-18.09Q61.03-20.48 59.58-21.8 58.12-23.12 55.49-23.12L55.49-23.12Q53.83-23.12 52.61-22.72 51.39-22.31 50.39-21.61L50.39-21.61 49.87-17.92 46.16-17.92 46.16-23.97Q49.75-26.9 55.56-26.9L55.56-26.9Q60.37-26.9 63.11-24.61 65.84-22.31 65.84-18.04L65.84-18.04 65.84-5.32Q65.84-4.81 65.85-4.32 65.86-3.83 65.91-3.34L65.91-3.34 68.48-3.08 68.48 0 61.57 0Q61.15-2 61.05-3.64L61.05-3.64Q59.66-1.86 57.58-0.67 55.49 0.51 53.12 0.51ZM53.83-3.52L53.83-3.52Q56.22-3.52 58.2-4.66 60.18-5.81 61.03-7.42L61.03-7.42 61.03-12.21 56.15-12.21Q52.83-12.21 51.17-10.62 49.51-9.03 49.51-7.08L49.51-7.08Q49.51-3.52 53.83-3.52ZM76.95 10.67L76.95 10.67Q76.38 10.67 75.48 10.53 74.58 10.4 74.09 10.28L74.09 10.28 74.58 6.49Q74.99 6.54 75.72 6.58 76.46 6.62 76.73 6.62L76.73 6.62Q78.26 6.62 79.23 5.44 80.19 4.27 81.02 2.25L81.02 2.25 82.17-0.54 72.82-22.92 69.99-23.32 69.99-26.42 81.07-26.42 81.07-23.32 77.87-22.83 83.02-9.62 84.27-6.18 84.42-6.18 90.52-22.83 87.15-23.32 87.15-26.42 98.01-26.42 98.01-23.32 95.28-22.92 84.88 4.05Q84.15 5.98 83.12 7.47L83.12 7.47Q82.07 8.96 80.57 9.81 79.07 10.67 76.95 10.67ZM125.94 0.51L125.94 0.51Q121.81 0.51 119.67-1.5 117.52-3.52 117.52-7.18L117.52-7.18Q117.52-9.72 118.91-11.57L118.91-11.57Q120.28-13.45 122.89-14.48 125.5-15.5 129.14-15.5L129.14-15.5 133.85-15.5 133.85-18.09Q133.85-20.48 132.4-21.8 130.94-23.12 128.31-23.12L128.31-23.12Q126.65-23.12 125.43-22.72 124.21-22.31 123.21-21.61L123.21-21.61 122.69-17.92 118.98-17.92 118.98-23.97Q122.57-26.9 128.38-26.9L128.38-26.9Q133.19-26.9 135.93-24.61 138.66-22.31 138.66-18.04L138.66-18.04 138.66-5.32Q138.66-4.81 138.67-4.32 138.68-3.83 138.73-3.34L138.73-3.34 141.3-3.08 141.3 0 134.39 0Q133.97-2 133.87-3.64L133.87-3.64Q132.48-1.86 130.4-0.67 128.31 0.51 125.94 0.51ZM126.65-3.52L126.65-3.52Q129.04-3.52 131.02-4.66 133-5.81 133.85-7.42L133.85-7.42 133.85-12.21 128.97-12.21Q125.65-12.21 123.99-10.62 122.33-9.03 122.33-7.08L122.33-7.08Q122.33-3.52 126.65-3.52ZM153.21-19.51L153.21-19.51 153.21-3.76 157.19-3.08 157.19 0 144.42 0 144.42-3.08 148.4-3.76 148.4-34.3 144.42-34.99 144.42-38.09 153.21-38.09 153.21-22.9Q154.57-24.8 156.55-25.85 158.53-26.9 160.95-26.9L160.95-26.9Q165.19-26.9 167.54-24.37 169.88-21.83 169.88-16.55L169.88-16.55 169.88-3.76 173.86-3.08 173.86 0 161.09 0 161.09-3.08 165.07-3.76 165.07-16.6Q165.07-23 159.48-23L159.48-23Q157.5-23 155.88-22.06 154.26-21.12 153.21-19.51ZM189.17 0.51L189.17 0.51Q185.5 0.51 182.8-1.17L182.8-1.17Q180.09-2.83 178.61-5.81 177.13-8.79 177.13-12.7L177.13-12.7 177.13-13.77Q177.13-17.55 178.69-20.51L178.69-20.51Q180.23-23.49 182.81-25.2 185.38-26.9 188.43-26.9L188.43-26.9Q192-26.9 194.42-25.44L194.42-25.44Q196.81-23.97 198.03-21.33 199.25-18.68 199.25-15.09L199.25-15.09 199.25-12.08 182.11-12.08 182.04-11.96Q182.06-9.47 182.94-7.47L182.94-7.47Q183.8-5.49 185.37-4.37 186.95-3.25 189.17-3.25L189.17-3.25Q191.61-3.25 193.45-3.94 195.3-4.64 196.64-5.86L196.64-5.86 198.52-2.73Q197.1-1.37 194.77-0.43 192.44 0.51 189.17 0.51ZM182.21-15.97L182.21-15.97 182.26-15.84 194.44-15.84 194.44-16.48Q194.44-18.41 193.78-19.9L193.78-19.9Q193.1-21.41 191.77-22.27 190.44-23.12 188.43-23.12L188.43-23.12Q186.85-23.12 185.5-22.19L185.5-22.19Q182.77-20.21 182.21-15.97ZM211.53 0.51L211.53 0.51Q207.4 0.51 205.25-1.5 203.11-3.52 203.11-7.18L203.11-7.18Q203.11-9.72 204.5-11.57L204.5-11.57Q205.86-13.45 208.48-14.48 211.09-15.5 214.73-15.5L214.73-15.5 219.44-15.5 219.44-18.09Q219.44-20.48 217.99-21.8 216.53-23.12 213.9-23.12L213.9-23.12Q212.24-23.12 211.02-22.72 209.79-22.31 208.79-21.61L208.79-21.61 208.28-17.92 204.57-17.92 204.57-23.97Q208.16-26.9 213.97-26.9L213.97-26.9Q218.78-26.9 221.51-24.61 224.25-22.31 224.25-18.04L224.25-18.04 224.25-5.32Q224.25-4.81 224.26-4.32 224.27-3.83 224.32-3.34L224.32-3.34 226.88-3.08 226.88 0 219.98 0Q219.56-2 219.46-3.64L219.46-3.64Q218.07-1.86 215.98-0.67 213.9 0.51 211.53 0.51ZM212.24-3.52L212.24-3.52Q214.63-3.52 216.61-4.66 218.58-5.81 219.44-7.42L219.44-7.42 219.44-12.21 214.56-12.21Q211.23-12.21 209.57-10.62 207.91-9.03 207.91-7.08L207.91-7.08Q207.91-3.52 212.24-3.52ZM240.99 0.51L240.99 0.51Q237.79 0.51 235.48-1.1L235.48-1.1Q233.18-2.69 231.95-5.54 230.71-8.4 230.71-12.21L230.71-12.21 230.71-12.72Q230.71-16.94 231.94-20.17L231.94-20.17Q233.16-23.36 235.48-25.13 237.79-26.9 241.04-26.9L241.04-26.9Q243.39-26.9 245.18-26.04 246.97-25.17 248.24-23.54L248.24-23.54 248.24-34.3 244.26-34.99 244.26-38.09 253.05-38.09 253.05-3.76 257.03-3.08 257.03 0 248.88 0 248.49-3.15Q245.85 0.51 240.99 0.51ZM242.21-3.39L242.21-3.39Q244.36-3.39 245.83-4.37 247.29-5.35 248.24-7.13L248.24-7.13 248.24-19.38Q247.32-21.04 245.83-22.02 244.34-23 242.26-23L242.26-23Q239.99-23 238.48-21.7L238.48-21.7Q236.99-20.39 236.26-18.08 235.52-15.77 235.52-12.72L235.52-12.72 235.52-12.21Q235.52-8.23 237.16-5.81 238.8-3.39 242.21-3.39ZM289.38 0.51L289.38 0.51Q285.74 0.51 283.08-1.22L283.08-1.22Q280.42-2.95 278.98-5.98 277.54-9.01 277.54-12.92L277.54-12.92 277.54-13.45Q277.54-17.33 278.98-20.41L278.98-20.41Q280.42-23.46 283.07-25.18 285.71-26.9 289.33-26.9L289.33-26.9Q292.97-26.9 295.65-25.17L295.65-25.17Q298.29-23.44 299.73-20.41 301.17-17.38 301.17-13.45L301.17-13.45 301.17-12.92Q301.17-9.03 299.73-5.96L299.73-5.96Q298.29-2.93 295.65-1.21 293.01 0.51 289.38 0.51ZM289.38-3.25L289.38-3.25Q291.67-3.25 293.23-4.52L293.23-4.52Q294.77-5.76 295.57-7.95 296.36-10.13 296.36-12.92L296.36-12.92 296.36-13.45Q296.36-16.21 295.58-18.43L295.58-18.43Q294.77-20.61 293.21-21.86 291.65-23.12 289.33-23.12L289.33-23.12Q287.06-23.12 285.47-21.88L285.47-21.88Q283.91-20.61 283.13-18.42 282.35-16.24 282.35-13.45L282.35-13.45 282.35-12.92Q282.35-10.16 283.13-7.96L283.13-7.96Q283.91-5.76 285.48-4.5 287.06-3.25 289.38-3.25ZM319.33-26.42L319.33-22.85 313.57-22.85 313.57-3.76 318.11-3.08 318.11 0 304.78 0 304.78-3.08 308.76-3.76 308.76-22.85 304.63-22.85 304.63-26.42 308.76-26.42 308.76-29.76Q308.76-33.98 310.97-36.29 313.18-38.6 317.13-38.6L317.13-38.6Q317.96-38.6 318.93-38.46 319.89-38.33 320.92-38.09L320.92-38.09 320.33-34.42Q319.89-34.52 319.15-34.59 318.4-34.67 317.74-34.67L317.74-34.67Q313.57-34.67 313.57-29.76L313.57-29.76 313.57-26.42 319.33-26.42ZM345.4 10.67L345.4 10.67Q344.84 10.67 343.93 10.53 343.03 10.4 342.54 10.28L342.54 10.28 343.03 6.49Q343.45 6.54 344.18 6.58 344.91 6.62 345.18 6.62L345.18 6.62Q346.72 6.62 347.68 5.44 348.65 4.27 349.48 2.25L349.48 2.25 350.62-0.54 341.27-22.92 338.44-23.32 338.44-26.42 349.53-26.42 349.53-23.32 346.33-22.83 351.48-9.62 352.72-6.18 352.87-6.18 358.97-22.83 355.6-23.32 355.6-26.42 366.47-26.42 366.47-23.32 363.73-22.92 353.33 4.05Q352.6 5.98 351.58 7.47L351.58 7.47Q350.53 8.96 349.03 9.81 347.52 10.67 345.4 10.67ZM380.7 0.51L380.7 0.51Q377.06 0.51 374.4-1.22L374.4-1.22Q371.74-2.95 370.3-5.98 368.86-9.01 368.86-12.92L368.86-12.92 368.86-13.45Q368.86-17.33 370.3-20.41L370.3-20.41Q371.74-23.46 374.39-25.18 377.04-26.9 380.65-26.9L380.65-26.9Q384.29-26.9 386.97-25.17L386.97-25.17Q389.61-23.44 391.05-20.41 392.49-17.38 392.49-13.45L392.49-13.45 392.49-12.92Q392.49-9.03 391.05-5.96L391.05-5.96Q389.61-2.93 386.97-1.21 384.34 0.51 380.7 0.51ZM380.7-3.25L380.7-3.25Q382.99-3.25 384.56-4.52L384.56-4.52Q386.1-5.76 386.89-7.95 387.68-10.13 387.68-12.92L387.68-12.92 387.68-13.45Q387.68-16.21 386.9-18.43L386.9-18.43Q386.1-20.61 384.53-21.86 382.97-23.12 380.65-23.12L380.65-23.12Q378.38-23.12 376.79-21.88L376.79-21.88Q375.23-20.61 374.45-18.42 373.67-16.24 373.67-13.45L373.67-13.45 373.67-12.92Q373.67-10.16 374.45-7.96L374.45-7.96Q375.23-5.76 376.81-4.5 378.38-3.25 380.7-3.25ZM407.82 0.51L407.82 0.51Q403.52 0.51 401.11-2.25 398.69-5 398.69-10.84L398.69-10.84 398.69-22.63 395.66-23.32 395.66-26.42 403.5-26.42 403.5-10.79Q403.5-6.57 404.75-4.98 405.99-3.39 408.63-3.39L408.63-3.39Q411.19-3.39 412.86-4.43 414.54-5.47 415.39-7.37L415.39-7.37 415.39-22.63 411.85-23.32 411.85-26.42 420.2-26.42 420.2-3.76 423.23-3.08 423.23 0 415.88 0 415.56-3.91Q414.32-1.78 412.35-0.63 410.38 0.51 407.82 0.51ZM435.33-18.73L435.33-18.73 435.33-3.76 439.31-3.08 439.31 0 426.54 0 426.54-3.08 430.52-3.76 430.52-22.63 426.54-23.32 426.54-26.42 434.82-26.42 435.24-23.05 435.28-22.58Q436.41-24.61 438.06-25.76 439.7-26.9 441.83-26.9L441.83-26.9Q442.58-26.9 443.38-26.77 444.17-26.64 444.51-26.51L444.51-26.51 443.88-22.05 440.53-22.24Q438.63-22.36 437.34-21.37 436.04-20.39 435.33-18.73ZM475.22 0.51L475.22 0.51Q472.56 0.51 470.24-0.02 467.92-0.56 465.31-1.68L465.31-1.68 465.26-7.96 468.9-7.96 469.8-4.17Q472.39-3.1 475.22-3.1L475.22-3.1Q478.15-3.1 479.42-4.22 480.69-5.35 480.69-7.01L480.69-7.01Q480.69-8.57 479.41-9.66 478.13-10.74 474.76-11.5L474.76-11.5Q469.97-12.6 467.71-14.44 465.46-16.28 465.46-19.36L465.46-19.36Q465.46-21.51 466.7-23.22L466.7-23.22Q467.95-24.9 470.17-25.9 472.39-26.9 475.34-26.9L475.34-26.9Q478.35-26.9 480.48-26.22 482.62-25.54 484.21-24.39L484.21-24.39 484.45-18.36 480.84-18.36 480.06-21.88Q478.27-23.19 475.34-23.19L475.34-23.19Q473.1-23.19 471.69-22.14 470.29-21.09 470.29-19.51L470.29-19.51Q470.29-18.6 470.7-17.9L470.7-17.9Q471.14-17.14 472.46-16.58 473.78-16.02 475.61-15.58L475.61-15.58Q481.13-14.28 483.31-12.28 485.5-10.28 485.5-7.35L485.5-7.35Q485.5-4 483.02-1.75 480.54 0.51 475.22 0.51ZM497.29-2.73L497.29-2.73 497.29 6.37 501.49 7.06 501.49 10.16 488.74 10.16 488.74 7.06 492.48 6.37 492.48-22.63 488.5-23.32 488.5-26.42 496.61-26.42 497.04-23.19Q499.75-26.9 504.64-26.9L504.64-26.9Q507.93-26.9 510.23-25.15L510.23-25.15Q512.55-23.36 513.77-20.18 514.99-16.99 514.99-12.72L514.99-12.72 514.99-12.21Q514.99-8.42 513.77-5.54L513.77-5.54Q512.52-2.69 510.23-1.09 507.93 0.51 504.71 0.51L504.71 0.51Q499.9 0.51 497.29-2.73ZM503.22-3.25L503.22-3.25Q506.64-3.25 508.4-5.74 510.16-8.23 510.16-12.21L510.16-12.21 510.16-12.72Q510.16-15.72 509.37-18.07L509.37-18.07Q508.59-20.39 507.04-21.69 505.49-23 503.17-23L503.17-23Q501.12-23 499.66-22.07 498.19-21.14 497.29-19.53L497.29-19.53 497.29-6.67Q498.19-5.03 499.64-4.14 501.1-3.25 503.22-3.25ZM530.73 0.51L530.73 0.51Q527.07 0.51 524.36-1.17L524.36-1.17Q521.65-2.83 520.17-5.81 518.7-8.79 518.7-12.7L518.7-12.7 518.7-13.77Q518.7-17.55 520.26-20.51L520.26-20.51Q521.8-23.49 524.37-25.2 526.95-26.9 530-26.9L530-26.9Q533.57-26.9 535.98-25.44L535.98-25.44Q538.38-23.97 539.6-21.33 540.82-18.68 540.82-15.09L540.82-15.09 540.82-12.08 523.68-12.08 523.6-11.96Q523.63-9.47 524.51-7.47L524.51-7.47Q525.36-5.49 526.94-4.37 528.51-3.25 530.73-3.25L530.73-3.25Q533.18-3.25 535.02-3.94 536.86-4.64 538.2-5.86L538.2-5.86 540.08-2.73Q538.67-1.37 536.34-0.43 534.01 0.51 530.73 0.51ZM523.78-15.97L523.78-15.97 523.82-15.84 536.01-15.84 536.01-16.48Q536.01-18.41 535.35-19.9L535.35-19.9Q534.66-21.41 533.33-22.27 532-23.12 530-23.12L530-23.12Q528.41-23.12 527.07-22.19L527.07-22.19Q524.34-20.21 523.78-15.97ZM553.34-19.26L553.34-19.26 553.34-3.76 557.32-3.08 557.32 0 544.55 0 544.55-3.08 548.53-3.76 548.53-22.63 544.55-23.32 544.55-26.42 552.83-26.42 553.17-22.49Q554.49-24.58 556.48-25.74 558.47-26.9 561-26.9L561-26.9Q565.28-26.9 567.62-24.4 569.96-21.9 569.96-16.67L569.96-16.67 569.96-3.76 573.94-3.08 573.94 0 561.18 0 561.18-3.08 565.15-3.76 565.15-16.58Q565.15-20.07 563.78-21.53 562.4-23 559.56-23L559.56-23Q557.49-23 555.89-22 554.29-21 553.34-19.26ZM587.71 0.51L587.71 0.51Q584.51 0.51 582.19-1.1L582.19-1.1Q579.9-2.69 578.67-5.54 577.43-8.4 577.43-12.21L577.43-12.21 577.43-12.72Q577.43-16.94 578.65-20.17L578.65-20.17Q579.87-23.36 582.19-25.13 584.51-26.9 587.76-26.9L587.76-26.9Q590.1-26.9 591.9-26.04 593.69-25.17 594.96-23.54L594.96-23.54 594.96-34.3 590.98-34.99 590.98-38.09 599.77-38.09 599.77-3.76 603.75-3.08 603.75 0 595.6 0 595.21-3.15Q592.57 0.51 587.71 0.51ZM588.93-3.39L588.93-3.39Q591.08-3.39 592.55-4.37 594.01-5.35 594.96-7.13L594.96-7.13 594.96-19.38Q594.03-21.04 592.55-22.02 591.06-23 588.98-23L588.98-23Q586.71-23 585.2-21.7L585.2-21.7Q583.71-20.39 582.97-18.08 582.24-15.77 582.24-12.72L582.24-12.72 582.24-12.21Q582.24-8.23 583.88-5.81 585.51-3.39 588.93-3.39ZM615.69-32.93L610.63-32.93 610.63-38.09 615.69-38.09 615.69-32.93ZM606.9-3.08L610.88-3.76 610.88-22.63 606.9-23.32 606.9-26.42 615.69-26.42 615.69-3.76 619.67-3.08 619.67 0 606.9 0 606.9-3.08ZM631.77-19.26L631.77-19.26 631.77-3.76 635.75-3.08 635.75 0 622.98 0 622.98-3.08 626.96-3.76 626.96-22.63 622.98-23.32 622.98-26.42 631.26-26.42 631.6-22.49Q632.92-24.58 634.91-25.74 636.9-26.9 639.44-26.9L639.44-26.9Q643.71-26.9 646.06-24.4 648.4-21.9 648.4-16.67L648.4-16.67 648.4-3.76 652.38-3.08 652.38 0 639.61 0 639.61-3.08 643.59-3.76 643.59-16.58Q643.59-20.07 642.21-21.53 640.83-23 638-23L638-23Q635.92-23 634.32-22 632.73-21 631.77-19.26ZM674.3-26.42L681.62-26.42 681.62-23.34 678.35-22.63 678.35-0.34Q678.35 3.1 677.08 5.54L677.08 5.54Q675.81 8.01 673.35 9.34 670.88 10.67 667.37 10.67L667.37 10.67Q665.46 10.67 663.24 10.14 661.02 9.62 659.33 8.72L659.33 8.72 660.58 4.98Q661.92 5.69 663.75 6.15 665.58 6.62 667.32 6.62L667.32 6.62Q670.54 6.62 672.04 4.81 673.54 3 673.54-0.34L673.54-0.34 673.54-2.86Q670.91 0.51 666.29 0.51L666.29 0.51Q663.07 0.51 660.73-1.1L660.73-1.1Q658.38-2.69 657.12-5.55 655.87-8.42 655.87-12.21L655.87-12.21 655.87-12.72Q655.87-17.02 657.14-20.17L657.14-20.17Q658.38-23.36 660.73-25.13 663.07-26.9 666.34-26.9L666.34-26.9Q671.25-26.9 673.86-23.1L673.86-23.1 674.3-26.42ZM673.54-7.18L673.54-7.18 673.54-19.34Q672.62-21.02 671.13-22.01 669.64-23 667.54-23L667.54-23Q665.24-23 663.73-21.68L663.73-21.68Q662.19-20.36 661.43-18.05 660.68-15.75 660.68-12.72L660.68-12.72 660.68-12.21Q660.68-8.23 662.36-5.81 664.05-3.39 667.49-3.39L667.49-3.39Q669.66-3.39 671.13-4.38 672.59-5.37 673.54-7.18ZM685.48 7.59L685.48 7.59 682.77 5.79Q683.92 4.03 684.5 2.2 685.09 0.37 685.09-1.68L685.09-1.68 685.09-5.4 689.9-5.4 689.9-1.76Q689.9 0.63 688.7 3.25 687.51 5.86 685.48 7.59ZM723 0.51L723 0.51Q719.34 0.51 716.63-1.17L716.63-1.17Q713.92-2.83 712.44-5.81 710.96-8.79 710.96-12.7L710.96-12.7 710.96-13.77Q710.96-17.55 712.53-20.51L712.53-20.51Q714.06-23.49 716.64-25.2 719.21-26.9 722.27-26.9L722.27-26.9Q725.83-26.9 728.25-25.44L728.25-25.44Q730.64-23.97 731.86-21.33 733.08-18.68 733.08-15.09L733.08-15.09 733.08-12.08 715.94-12.08 715.87-11.96Q715.89-9.47 716.77-7.47L716.77-7.47Q717.63-5.49 719.2-4.37 720.78-3.25 723-3.25L723-3.25Q725.44-3.25 727.28-3.94 729.13-4.64 730.47-5.86L730.47-5.86 732.35-2.73Q730.93-1.37 728.6-0.43 726.27 0.51 723 0.51ZM716.04-15.97L716.04-15.97 716.09-15.84 728.27-15.84 728.27-16.48Q728.27-18.41 727.61-19.9L727.61-19.9Q726.93-21.41 725.6-22.27 724.27-23.12 722.27-23.12L722.27-23.12Q720.68-23.12 719.34-22.19L719.34-22.19Q716.6-20.21 716.04-15.97ZM751.27-26.42L751.27-22.85 745.51-22.85 745.51-3.76 750.05-3.08 750.05 0 736.72 0 736.72-3.08 740.7-3.76 740.7-22.85 736.57-22.85 736.57-26.42 740.7-26.42 740.7-29.76Q740.7-33.98 742.91-36.29 745.12-38.6 749.07-38.6L749.07-38.6Q749.9-38.6 750.86-38.46 751.83-38.33 752.85-38.09L752.85-38.09 752.27-34.42Q751.83-34.52 751.08-34.59 750.34-34.67 749.68-34.67L749.68-34.67Q745.51-34.67 745.51-29.76L745.51-29.76 745.51-26.42 751.27-26.42ZM768.97-26.42L768.97-22.85 763.2-22.85 763.2-3.76 767.74-3.08 767.74 0 754.41 0 754.41-3.08 758.39-3.76 758.39-22.85 754.27-22.85 754.27-26.42 758.39-26.42 758.39-29.76Q758.39-33.98 760.6-36.29 762.81-38.6 766.77-38.6L766.77-38.6Q767.6-38.6 768.56-38.46 769.53-38.33 770.55-38.09L770.55-38.09 769.97-34.42Q769.53-34.52 768.78-34.59 768.04-34.67 767.38-34.67L767.38-34.67Q763.2-34.67 763.2-29.76L763.2-29.76 763.2-26.42 768.97-26.42ZM784.15 0.51L784.15 0.51Q780.51 0.51 777.85-1.22L777.85-1.22Q775.19-2.95 773.75-5.98 772.31-9.01 772.31-12.92L772.31-12.92 772.31-13.45Q772.31-17.33 773.75-20.41L773.75-20.41Q775.19-23.46 777.84-25.18 780.49-26.9 784.1-26.9L784.1-26.9Q787.74-26.9 790.42-25.17L790.42-25.17Q793.06-23.44 794.5-20.41 795.94-17.38 795.94-13.45L795.94-13.45 795.94-12.92Q795.94-9.03 794.5-5.96L794.5-5.96Q793.06-2.93 790.42-1.21 787.79 0.51 784.15 0.51ZM784.15-3.25L784.15-3.25Q786.44-3.25 788.01-4.52L788.01-4.52Q789.54-5.76 790.34-7.95 791.13-10.13 791.13-12.92L791.13-12.92 791.13-13.45Q791.13-16.21 790.35-18.43L790.35-18.43Q789.54-20.61 787.98-21.86 786.42-23.12 784.1-23.12L784.1-23.12Q781.83-23.12 780.24-21.88L780.24-21.88Q778.68-20.61 777.9-18.42 777.12-16.24 777.12-13.45L777.12-13.45 777.12-12.92Q777.12-10.16 777.9-7.96L777.9-7.96Q778.68-5.76 780.25-4.5 781.83-3.25 784.15-3.25ZM808.39-18.73L808.39-18.73 808.39-3.76 812.37-3.08 812.37 0 799.6 0 799.6-3.08 803.58-3.76 803.58-22.63 799.6-23.32 799.6-26.42 807.88-26.42 808.29-23.05 808.34-22.58Q809.46-24.61 811.11-25.76 812.76-26.9 814.88-26.9L814.88-26.9Q815.64-26.9 816.43-26.77 817.23-26.64 817.57-26.51L817.57-26.51 816.93-22.05 813.59-22.24Q811.69-22.36 810.39-21.37 809.1-20.39 808.39-18.73ZM829.82 0.42L829.82 0.42Q826.89 0.42 825.17-1.31 823.45-3.03 823.45-6.81L823.45-6.81 823.45-22.85 819.28-22.85 819.28-26.42 823.45-26.42 823.45-32.79 828.26-32.79 828.26-26.42 834-26.42 834-22.85 828.26-22.85 828.26-6.81Q828.26-4.91 829.02-4 829.77-3.1 831.04-3.1L831.04-3.1Q831.9-3.1 832.95-3.26 834-3.42 834.58-3.54L834.58-3.54 835.24-0.39Q834.19-0.07 832.67 0.17 831.14 0.42 829.82 0.42ZM838.07-3.08L842.05-3.76 842.05-34.3 838.07-34.99 838.07-38.09 846.86-38.09 846.86-3.76 850.84-3.08 850.84 0 838.07 0 838.07-3.08ZM866.29 0.51L866.29 0.51Q862.63 0.51 859.92-1.17L859.92-1.17Q857.21-2.83 855.73-5.81 854.26-8.79 854.26-12.7L854.26-12.7 854.26-13.77Q854.26-17.55 855.82-20.51L855.82-20.51Q857.36-23.49 859.93-25.2 862.51-26.9 865.56-26.9L865.56-26.9Q869.12-26.9 871.54-25.44L871.54-25.44Q873.93-23.97 875.15-21.33 876.37-18.68 876.37-15.09L876.37-15.09 876.37-12.08 859.24-12.08 859.16-11.96Q859.19-9.47 860.07-7.47L860.07-7.47Q860.92-5.49 862.5-4.37 864.07-3.25 866.29-3.25L866.29-3.25Q868.73-3.25 870.58-3.94 872.42-4.64 873.76-5.86L873.76-5.86 875.64-2.73Q874.23-1.37 871.89-0.43 869.56 0.51 866.29 0.51ZM859.33-15.97L859.33-15.97 859.38-15.84 871.57-15.84 871.57-16.48Q871.57-18.41 870.91-19.9L870.91-19.9Q870.22-21.41 868.89-22.27 867.56-23.12 865.56-23.12L865.56-23.12Q863.97-23.12 862.63-22.19L862.63-22.19Q859.9-20.21 859.33-15.97ZM890.8 0.51L890.8 0.51Q888.14 0.51 885.82-0.02 883.5-0.56 880.89-1.68L880.89-1.68 880.84-7.96 884.48-7.96 885.38-4.17Q887.97-3.1 890.8-3.1L890.8-3.1Q893.73-3.1 895-4.22 896.27-5.35 896.27-7.01L896.27-7.01Q896.27-8.57 894.99-9.66 893.71-10.74 890.34-11.5L890.34-11.5Q885.55-12.6 883.29-14.44 881.04-16.28 881.04-19.36L881.04-19.36Q881.04-21.51 882.28-23.22L882.28-23.22Q883.53-24.9 885.75-25.9 887.97-26.9 890.92-26.9L890.92-26.9Q893.93-26.9 896.06-26.22 898.2-25.54 899.79-24.39L899.79-24.39 900.03-18.36 896.42-18.36 895.64-21.88Q893.85-23.19 890.92-23.19L890.92-23.19Q888.68-23.19 887.27-22.14 885.87-21.09 885.87-19.51L885.87-19.51Q885.87-18.6 886.28-17.9L886.28-17.9Q886.72-17.14 888.04-16.58 889.36-16.02 891.19-15.58L891.19-15.58Q896.71-14.28 898.89-12.28 901.08-10.28 901.08-7.35L901.08-7.35Q901.08-4 898.6-1.75 896.12 0.51 890.8 0.51ZM915.75 0.51L915.75 0.51Q913.09 0.51 910.77-0.02 908.45-0.56 905.84-1.68L905.84-1.68 905.79-7.96 909.43-7.96 910.33-4.17Q912.92-3.1 915.75-3.1L915.75-3.1Q918.68-3.1 919.95-4.22 921.22-5.35 921.22-7.01L921.22-7.01Q921.22-8.57 919.94-9.66 918.65-10.74 915.29-11.5L915.29-11.5Q910.5-12.6 908.24-14.44 905.98-16.28 905.98-19.36L905.98-19.36Q905.98-21.51 907.23-23.22L907.23-23.22Q908.47-24.9 910.7-25.9 912.92-26.9 915.87-26.9L915.87-26.9Q918.87-26.9 921.01-26.22 923.15-25.54 924.73-24.39L924.73-24.39 924.98-18.36 921.36-18.36 920.58-21.88Q918.8-23.19 915.87-23.19L915.87-23.19Q913.63-23.19 912.22-22.14 910.82-21.09 910.82-19.51L910.82-19.51Q910.82-18.6 911.23-17.9L911.23-17.9Q911.67-17.14 912.99-16.58 914.31-16.02 916.14-15.58L916.14-15.58Q921.66-14.28 923.84-12.28 926.03-10.28 926.03-7.35L926.03-7.35Q926.03-4 923.55-1.75 921.07 0.51 915.75 0.51ZM929.76-3.08L933.74-3.76 933.74-34.3 929.76-34.99 929.76-38.09 938.55-38.09 938.55-3.76 942.53-3.08 942.53 0 929.76 0 929.76-3.08ZM951.68 10.67L951.68 10.67Q951.12 10.67 950.22 10.53 949.31 10.4 948.83 10.28L948.83 10.28 949.31 6.49Q949.73 6.54 950.46 6.58 951.19 6.62 951.46 6.62L951.46 6.62Q953 6.62 953.96 5.44 954.93 4.27 955.76 2.25L955.76 2.25 956.91-0.54 947.56-22.92 944.72-23.32 944.72-26.42 955.81-26.42 955.81-23.32 952.61-22.83 957.76-9.62 959.01-6.18 959.15-6.18 965.26-22.83 961.89-23.32 961.89-26.42 972.75-26.42 972.75-23.32 970.02-22.92 959.62 4.05Q958.88 5.98 957.86 7.47L957.86 7.47Q956.81 8.96 955.31 9.81 953.81 10.67 951.68 10.67Z" opacity="1" transform="matrix(1,0,0,1,0,0)" fill="#161c60" class="slogan-text-1" data-fill-palette-color="secondary" id="text-1"></path></svg></g></svg></g></svg></g></svg></g><g><svg viewBox="0 0 67.67987307621303 157.99012971958197" height="157.99012971958197" width="67.67987307621303"><g><svg xmlns="http://www.w3.org/2000/svg" xmlns:xlink="http://www.w3.org/1999/xlink" version="1.1" x="0" y="0" viewBox="29.421 4.507 37.159 86.743" enable-background="new 0 0 96 96" xml:space="preserve" height="157.99012971958197" width="67.67987307621303" class="icon-icon-0" data-fill-palette-color="accent" id="icon-0"><path d="M48 46.231C41.881 46.231 36.903 51.209 36.903 57.328S41.881 68.424 48 68.424 59.097 63.446 59.097 57.327 54.119 46.231 48 46.231M45.007 56.299C45.242 56.577 46.254 56.577 47.653 56.577H48.347C52.632 56.577 52.775 57.082 52.775 61.68 52.775 62.79 52.237 63.737 51.26 64.346 50.591 64.763 49.71 65.008 48.749 65.074V66.777H47.249V65.033C45.152 64.751 43.223 63.597 43.223 61.681H44.723C44.723 62.831 46.552 63.603 48.26 63.603 49.135 63.603 49.919 63.415 50.467 63.074 51.011 62.735 51.275 62.28 51.275 61.681 51.275 59.945 51.275 58.691 50.992 58.356 50.757 58.078 49.746 58.078 48.346 58.078H47.652C43.366 58.078 43.223 57.573 43.223 52.974 43.223 51.864 43.761 50.917 44.738 50.308 45.407 49.891 46.289 49.646 47.249 49.581V47.877H48.749V49.622C50.846 49.904 52.775 51.058 52.775 52.973H51.275C51.275 51.824 49.446 51.052 47.737 51.052 46.862 51.052 46.078 51.24 45.531 51.581 44.987 51.92 44.723 52.375 44.723 52.974 44.724 54.71 44.724 55.965 45.007 56.299" fill="#142952" data-fill-palette-color="accent"></path><path d="M65.83 11.542V10.042C61.72 10.042 58.524 10.602 56.031 11.469L48 4.507 29.421 20.613V91.25H66.58V20.613L57.354 12.615C59.565 11.959 62.335 11.542 65.83 11.542M48 17.696C48.091 17.696 48.177 17.716 48.266 17.723 47.281 19.678 47.25 21.248 47.25 21.29H48.75C48.75 21.253 48.778 19.866 49.71 18.148 50.826 18.758 51.594 19.93 51.594 21.29A3.6 3.6 0 0 1 47.999 24.884C46.018 24.884 44.405 23.272 44.405 21.29S46.019 17.696 48 17.696M60.597 57.328C60.597 64.274 54.946 69.925 48 69.925S35.403 64.274 35.403 57.328 41.054 44.731 48 44.731 60.597 50.382 60.597 57.328" fill="#142952" data-fill-palette-color="accent"></path></svg></g></svg></g></svg></g><defs></defs></svg><rect width="395.52" height="131.83805633442077" fill="none" stroke="none" visibility="hidden"></rect></g></svg></g></svg>